#!OML:ASF H:\charlestonDancing\Project 1\Capture day 1\Session 1\femaleDancer.ASF
:FULLY-SPECIFIED
:DEGREES
308
root -0.111246 17.5001 4.54314 428.416 -83.3197 -418.151
lowerback 23.9239 -4.35319 6.19068
upperback 6.33165 -4.50564 1.63407
thorax -6.59361 -2.42419 -0.405113
lowerneck 9.39779 15.9335 14.9068
upperneck -13.2475 21.7493 -18.0119
head -1.72685 11.3039 -8.03091
rclavicle 3.69739e-014 7.35503e-014
rhumerus -50.373 -25.9701 -50.0977
rradius 99.6799
rwrist -51.5716
rhand -15.0384 -36.1522
rfingers 7.12502
rthumb 11.1277 -65.8372
lclavicle 3.69739e-014 7.35503e-014
lhumerus 3.98769 -10.6747 62.2047
lradius 89.6171
lwrist 6.12513
lhand -28.0344 10.8821
lfingers 7.12502
lthumb -1.41913 40.8571
rfemur -30.8162 4.2111 28.8066
rtibia 41.1169
rfoot -18.6457 0.350694
rtoes -11.9158
lfemur -40.0957 8.85161 -19.0915
ltibia 69.6233
lfoot -11.8347 -6.16284
ltoes -18.246
309
root -0.101896 17.6056 4.5496 422.078 -83.4611 -411.743
lowerback 23.7314 -4.54319 5.77285
upperback 6.27835 -4.85531 1.53172
thorax -6.5557 -2.58269 -0.188385
lowerneck 9.53507 16.1671 15.3801
upperneck -12.9608 22.1444 -18.401
head -1.49809 11.517 -8.15121
rclavicle -3.89618e-014 7.55382e-015
rhumerus -49.5437 -25.9734 -50.8046
rradius 98.6518
rwrist -50.9558
rhand -14.839 -35.4933
rfingers 7.12502
rthumb 11.32 -65.1678
lclavicle -3.89618e-014 7.55382e-015
lhumerus 7.82913 -11.516 61.8234
lradius 89.4805
lwrist 5.36036
lhand -28.3842 10.0127
lfingers 7.12502
lthumb -1.75696 39.9852
rfemur -29.9786 3.53373 28.2773
rtibia 39.3428
rfoot -17.2773 0.362883
rtoes -16.1576
lfemur -37.7343 8.83323 -19.7107
ltibia 69.9083
lfoot -8.90782 -4.29399
ltoes -17.0987
310
root -0.091181 17.695 4.55401 414.975 -83.4465 -404.259
lowerback 23.2131 -4.73252 5.39358
upperback 6.17664 -5.20555 1.47289
thorax -6.40047 -2.73921 0.0296732
lowerneck 9.40137 16.3611 15.6133
upperneck -12.6381 22.4378 -18.5487
head -1.28927 11.6623 -8.15353
rclavicle -8.74653e-015 1.94809e-014
rhumerus -48.7962 -25.8447 -51.3067
rradius 97.7657
rwrist -50.8004
rhand -14.7847 -35.1477
rfingers 7.12502
rthumb 11.3724 -64.8193
lclavicle -8.74653e-015 1.94809e-014
lhumerus 11.6661 -12.066 61.4738
lradius 88.7997
lwrist 3.46227
lhand -27.9213 9.57849
lfingers 7.12502
lthumb -1.30993 39.5542
rfemur -29.8596 2.99945 27.6976
rtibia 38.2667
rfoot -16.0729 0.250778
rtoes -18.4945
lfemur -35.5462 8.66662 -20.3643
ltibia 69.5452
lfoot -5.91085 -2.39339
ltoes -18.1094
311
root -0.0797974 17.7676 4.55593 409.734 -83.4759 -398.549
lowerback 22.6217 -4.80992 4.89083
upperback 6.07888 -5.43838 1.48209
thorax -6.17628 -2.84004 0.345001
lowerneck 9.14706 16.4753 15.6995
upperneck -12.3599 22.5846 -18.6686
head -1.11769 11.7332 -8.13485
rclavicle 2.38542e-015 -4.41302e-014
rhumerus -47.9665 -25.5178 -51.7035
rradius 97.039
rwrist -50.9437
rhand -15.1322 -35.0758
rfingers 7.12502
rthumb 11.0373 -64.7656
lclavicle 2.38542e-015 -4.41302e-014
lhumerus 15.2406 -12.4895 61.1644
lradius 87.8706
lwrist 1.59295
lhand -27.7689 8.89768
lfingers 7.12502
lthumb -1.16268 38.8743
rfemur -30.0981 2.93388 27.1023
rtibia 37.6695
rfoot -15.2182 0.0281655
rtoes -17.5728
lfemur -33.2789 8.68848 -20.9721
ltibia 68.4681
lfoot -3.95262 -0.846861
ltoes -20.385
312
root -0.0639112 17.814 4.55709 402.949 -84.087 -391.111
lowerback 21.8999 -4.69633 3.67613
upperback 5.9795 -5.58432 1.40436
thorax -5.82657 -2.89454 0.923181
lowerneck 8.66144 16.5653 15.6399
upperneck -12.1009 22.6456 -18.8255
head -0.940025 11.7592 -8.0946
rclavicle 3.53837e-014 -3.37934e-014
rhumerus -46.999 -25.0364 -52.0701
rradius 96.5069
rwrist -50.9907
rhand -15.888 -35.2349
rfingers 7.12502
rthumb 10.3082 -64.9623
lclavicle 3.53837e-014 -3.37934e-014
lhumerus 18.4932 -12.8004 60.8303
lradius 86.8079
lwrist 0.39121
lhand -28.1202 8.09888
lfingers 7.12502
lthumb -1.50197 38.0733
rfemur -30.8156 3.04974 25.9189
rtibia 37.5241
rfoot -14.6078 -0.152033
rtoes -19.5871
lfemur -31.0071 8.66707 -22.2123
ltibia 66.6194
lfoot -3.19254 0.900543
ltoes -22.1099
313
root -0.0431639 17.8425 4.5956 399.585 -83.9938 -387.194
lowerback 21.2135 -4.9178 3.72994
upperback 5.93103 -5.88136 1.4354
thorax -5.53393 -3.03487 0.949225
lowerneck 7.99872 16.6796 15.3126
upperneck -11.9719 22.6836 -18.8534
head -0.823899 11.7662 -7.98166
rclavicle -3.97569e-014 1.35174e-014
rhumerus -46.1006 -24.4152 -52.3017
rradius 96.2652
rwrist -50.965
rhand -16.7198 -35.6651
rfingers 7.12502
rthumb 9.50569 -65.4307
lclavicle -3.97569e-014 1.35174e-014
lhumerus 21.3797 -12.96 60.4418
lradius 85.724
lwrist -0.422439
lhand -28.5522 7.28916
lfingers 7.12502
lthumb -1.9192 37.2603
rfemur -31.6003 1.98448 25.6914
rtibia 37.7506
rfoot -14.5311 0.483408
rtoes -18.4058
lfemur -28.5225 8.09576 -22.6982
ltibia 64.0154
lfoot -2.78407 2.77397
ltoes -21.6319
